# xmcd
#
# Track frame offsets: 
#        150
#        14884
#        37999
#        55215
#        73912
#        91183
#        107739
#        127022
#        142672
#        165689
#        182919
#        209265
#        229020
#
# Disc length: 3251 seconds
#
# Revision: 1
# Processed by: cddbd v1.5.1PL0 Copyright (c) Steve Scherf et al.
# Submitted via: ExactAudioCopy v0.95a5
#
DISCID=b60cb10d
DTITLE=Faith Hill - Love will always win
DYEAR=1999
DGENRE=Country
TTITLE0=This Kiss
TTITLE1=Love Will Always Win
TTITLE2=Me
TTITLE3=Let Me Let Go (MOVIE VERSION)
TTITLE4=Love Ain't Like That
TTITLE5=Piece Of My Heart
TTITLE6=The Secret Of Life
TTITLE7=Better Days
TTITLE8=I Love You
TTITLE9=The Hard Way
TTITLE10=Somebody Stand By Me
TTITLE11=Let Me Let Go
TTITLE12=It Matters To Me
EXTD=
EXTT0=
EXTT1=
EXTT2=
EXTT3=
EXTT4=
EXTT5=
EXTT6=
EXTT7=
EXTT8=
EXTT9=
EXTT10=
EXTT11=
EXTT12=
PLAYORDER=
